<?xml version="1.0" encoding="UTF-8" standalone="no"?>
<svg
   xmlns:osb="http://www.openswatchbook.org/uri/2009/osb"
   xmlns:dc="http://purl.org/dc/elements/1.1/"
   xmlns:cc="http://creativecommons.org/ns#"
   xmlns:rdf="http://www.w3.org/1999/02/22-rdf-syntax-ns#"
   xmlns:svg="http://www.w3.org/2000/svg"
   xmlns="http://www.w3.org/2000/svg"
   xmlns:sodipodi="http://sodipodi.sourceforge.net/DTD/sodipodi-0.dtd"
   xmlns:inkscape="http://www.inkscape.org/namespaces/inkscape"
   height="100px"
   width="100px"
   fill="#000000"
   version="1.1"
   x="0px"
   y="0px"
   viewBox="0 0 100 100"
   style="enable-background:new 0 0 100 100;"
   xml:space="preserve"
   id="svg1473"
   sodipodi:docname="noun_play_559093.svg"
   inkscape:version="0.92.5 (2060ec1f9f, 2020-04-08)"><metadata
     id="metadata1479"><rdf:RDF><cc:Work
         rdf:about=""><dc:format>image/svg+xml</dc:format><dc:type
           rdf:resource="http://purl.org/dc/dcmitype/StillImage" /></cc:Work></rdf:RDF></metadata><defs
     id="defs1477"><linearGradient
       id="linearGradient2945"
       osb:paint="solid"><stop
         style="stop-color:#000000;stop-opacity:1;"
         offset="0"
         id="stop2943" /></linearGradient></defs><sodipodi:namedview
     pagecolor="#ffffff"
     bordercolor="#666666"
     borderopacity="1"
     objecttolerance="10"
     gridtolerance="10"
     guidetolerance="10"
     inkscape:pageopacity="0"
     inkscape:pageshadow="2"
     inkscape:window-width="1864"
     inkscape:window-height="1016"
     id="namedview1475"
     showgrid="false"
     inkscape:zoom="8.38"
     inkscape:cx="28.579952"
     inkscape:cy="59.546539"
     inkscape:window-x="56"
     inkscape:window-y="27"
     inkscape:window-maximized="1"
     inkscape:current-layer="svg1473" /><style
     type="text/css"
     id="style1175">
	.st0{display:none;}
	.st1{display:inline;}
	.st2{display:inline;fill:#000000;}
</style><path
     style="display:inline;fill:#ffffff;fill-opacity:1;stroke:#ffffff;stroke-width:0.11933174;stroke-opacity:1"
     d="m 26.097852,90.447702 c -3.807368,-0.610663 -7.163092,-3.445803 -8.422253,-7.115684 -0.185157,-0.53965 -0.392639,-1.330228 -0.46107,-1.756839 -0.08287,-0.516626 -0.123846,-7.570193 -0.122701,-21.121718 0.0016,-19.447755 0.01135,-20.367255 0.219756,-20.826037 1.058183,-2.329424 4.310067,-2.291729 5.375658,0.06231 0.24142,0.533331 0.243095,0.673746 0.245698,20.589487 0.0023,17.625074 0.02477,20.13751 0.185546,20.75479 0.506105,1.94307 1.916925,3.259171 3.926317,3.662714 0.810273,0.162727 1.96063,-0.0035 2.725703,-0.393772 C 30.033023,84.169029 40.457833,77.252629 52.936751,68.933177 70.70765,57.085662 75.746606,53.672414 76.18352,53.186461 c 0.799964,-0.889753 1.088975,-1.708654 1.099314,-3.114862 0.0099,-1.352581 -0.198577,-2.053476 -0.904009,-3.0386 C 75.922107,46.395202 74.661412,45.535504 53.193105,31.222129 40.706598,22.89711 30.253839,15.964814 29.964753,15.817028 c -1.913619,-0.978276 -4.109405,-0.691318 -5.662162,0.739963 -1.017341,0.937753 -1.524632,2.058528 -1.656305,3.659333 -0.117789,1.432002 -0.605715,2.225349 -1.674822,2.72319 -1.65895,0.772507 -3.565154,-0.09821 -4.084063,-1.865528 -0.165603,-0.564016 -0.17338,-0.8218 -0.05529,-1.832863 0.5035,-4.310925 3.332359,-7.814968 7.437185,-9.21227 1.206681,-0.4107595 2.429455,-0.5673093 3.939902,-0.5044193 1.637075,0.068162 2.93208,0.3987245 4.306044,1.0991573 0.539648,0.275108 5.142874,3.267024 10.229389,6.648703 36.153346,24.035908 36.315013,24.144633 37.145345,24.981325 2.431613,2.450239 3.538971,5.825787 3.023529,9.216589 -0.420881,2.768725 -1.800504,5.225021 -3.857341,6.86765 C 78.610476,58.693792 67.98926,65.828921 55.453461,74.1937 31.965616,89.866467 32.202841,89.715362 30.274463,90.231913 c -0.71,0.190187 -3.452726,0.331892 -4.176611,0.215789 z"
     id="path1483"
     inkscape:connector-curvature="0" /></svg>