<?xml version="1.0" standalone="no"?>
<!DOCTYPE svg PUBLIC "-//W3C//DTD SVG 20010904//EN"
 "http://www.w3.org/TR/2001/REC-SVG-20010904/DTD/svg10.dtd">
<svg version="1.0" xmlns="http://www.w3.org/2000/svg"
 width="700.000000pt" height="700.000000pt" viewBox="0 0 700.000000 700.000000"
 preserveAspectRatio="xMidYMid meet">
<metadata>
Created by potrace 1.14, written by Peter Selinger 2001-2017
</metadata>
<g transform="translate(0.000000,700.000000) scale(0.100000,-0.100000)"
fill="#000000" stroke="none">
<path d="M3323 5703 c-95 -192 -199 -409 -233 -483 -34 -74 -71 -155 -82 -179
-40 -89 -168 -401 -168 -410 0 -29 -28 -10 -126 87 -152 150 -404 381 -568
521 -27 24 -54 48 -61 54 -7 7 -38 35 -70 62 -32 28 -63 55 -69 60 -6 6 -49
44 -96 85 -47 41 -103 91 -124 112 -22 21 -44 38 -48 38 -4 0 -8 -17 -9 -37
-1 -21 -2 -49 -4 -63 -1 -14 -5 -68 -9 -120 -4 -52 -9 -111 -11 -130 -6 -53
-14 -164 -20 -275 -3 -55 -8 -122 -10 -150 -11 -125 -18 -404 -18 -662 0 -156
-3 -283 -7 -283 -4 0 -25 8 -46 17 -22 9 -43 18 -49 19 -5 2 -89 30 -185 64
-191 67 -485 164 -790 260 -107 34 -262 84 -345 111 -82 27 -151 49 -153 49
-5 0 6 -36 43 -135 18 -49 72 -198 120 -330 375 -1036 629 -1588 946 -2055
425 -628 918 -971 1504 -1047 33 -4 148 -8 255 -7 203 1 329 16 525 65 83 20
89 20 153 5 71 -18 85 -20 172 -35 359 -63 697 -42 1005 61 597 198 1088 696
1498 1518 142 283 224 473 357 830 75 200 383 1120 377 1126 -2 2 -24 -3 -48
-11 -24 -9 -231 -75 -459 -147 -228 -71 -487 -155 -575 -184 -88 -30 -187 -64
-220 -75 -33 -11 -69 -24 -80 -28 -71 -31 -187 -73 -190 -69 -3 3 -7 112 -10
244 -6 256 -10 381 -21 564 -3 63 -7 140 -9 170 -5 111 -17 336 -20 385 -2 28
-6 118 -10 200 -4 83 -9 152 -11 154 -2 2 -167 -132 -194 -159 -3 -3 -36 -32
-75 -64 -38 -33 -74 -64 -80 -70 -5 -6 -26 -24 -45 -40 -115 -95 -418 -375
-607 -562 l-152 -150 -16 38 c-19 48 -186 429 -227 518 -17 36 -49 108 -73
160 -118 260 -346 730 -355 730 -4 0 -83 -156 -177 -347z m290 -670 c58 -131
120 -272 137 -313 17 -41 38 -89 46 -106 44 -99 156 -397 215 -577 74 -222
125 -415 159 -592 11 -60 23 -120 26 -132 2 -13 0 -23 -5 -23 -13 0 -325 -309
-394 -390 -82 -97 -199 -274 -248 -378 -24 -51 -46 -92 -49 -91 -3 0 -23 37
-44 82 -91 188 -215 356 -419 562 -82 83 -168 166 -191 185 -24 19 -42 37 -41
40 2 3 6 29 9 59 4 29 8 56 10 60 3 4 7 27 11 51 3 25 11 63 17 85 5 22 12 51
15 65 9 55 95 343 142 482 77 224 209 553 328 818 16 36 58 129 93 208 36 78
67 142 71 142 3 0 53 -107 112 -237z m-1597 -127 c11 -12 74 -70 140 -131 262
-241 524 -505 524 -526 0 -4 -25 -96 -55 -206 -31 -109 -73 -274 -95 -367 -21
-92 -40 -170 -42 -171 -2 -1 -46 22 -98 52 -52 29 -173 95 -268 145 -112 59
-177 99 -182 112 -5 12 -7 190 -5 396 3 327 7 452 20 625 1 22 3 57 4 79 1 42
6 41 57 -8z m3028 -487 c2 -288 1 -551 -1 -584 l-5 -60 -156 -77 c-87 -42
-204 -103 -262 -136 -57 -34 -106 -60 -107 -59 -2 2 -55 220 -78 319 -9 40
-42 143 -87 274 -26 77 -48 146 -48 152 0 16 305 315 441 433 13 11 67 61 120
109 134 125 173 159 177 156 1 -2 4 -239 6 -527z m-4373 -548 c756 -216 1302
-446 1709 -721 l35 -24 -2 -211 c-3 -417 59 -725 206 -1029 103 -214 218 -373
393 -549 53 -53 96 -97 95 -98 -23 -11 -292 -15 -372 -5 -129 15 -152 20 -260
51 -258 75 -498 221 -715 435 -278 275 -497 597 -735 1085 -76 155 -228 499
-260 585 -7 19 -53 140 -104 268 -50 128 -91 235 -91 238 0 3 6 4 14 1 7 -3
47 -15 87 -26z m5744 -17 c-9 -22 -23 -59 -32 -84 -8 -25 -21 -58 -28 -75 -7
-16 -52 -129 -100 -250 -141 -354 -325 -756 -425 -925 -167 -283 -199 -333
-322 -496 -269 -362 -583 -607 -921 -719 -183 -60 -300 -78 -507 -76 -108 1
-141 3 -182 10 -4 0 39 47 95 103 174 174 290 333 390 533 92 185 164 408 183
565 3 30 8 58 10 61 15 25 23 362 13 543 l-4 79 45 32 c138 95 430 256 600
329 36 16 88 38 115 51 144 65 504 191 810 283 222 67 269 80 273 77 2 -2 -4
-20 -13 -41z m-3475 -1204 c158 -193 297 -476 344 -705 31 -149 34 -171 42
-315 l6 -115 -52 50 c-125 120 -259 303 -339 463 -71 141 -137 340 -156 468
-4 21 -8 50 -11 64 -2 14 -7 61 -10 105 -3 44 -7 99 -8 122 -2 23 -1 44 2 47
7 7 115 -102 182 -184z m1304 133 c-15 -368 -105 -657 -289 -933 -74 -110
-112 -157 -213 -260 l-74 -75 6 112 c21 440 199 849 502 1151 34 34 64 62 67
62 2 0 2 -26 1 -57z"/>
</g>
</svg>
