<?xml version="1.0" encoding="UTF-8" standalone="no"?>
<svg
   xmlns:dc="http://purl.org/dc/elements/1.1/"
   xmlns:cc="http://creativecommons.org/ns#"
   xmlns:rdf="http://www.w3.org/1999/02/22-rdf-syntax-ns#"
   xmlns:svg="http://www.w3.org/2000/svg"
   xmlns="http://www.w3.org/2000/svg"
   xmlns:sodipodi="http://sodipodi.sourceforge.net/DTD/sodipodi-0.dtd"
   xmlns:inkscape="http://www.inkscape.org/namespaces/inkscape"
   version="1.1"
   x="0px"
   y="0px"
   viewBox="0 0 100 125"
   enable-background="new 0 0 100 100"
   xml:space="preserve"
   id="svg20"
   sodipodi:docname="icon.svg"
   inkscape:version="0.92.5 (2060ec1f9f, 2020-04-08)"><metadata
     id="metadata26"><rdf:RDF><cc:Work
         rdf:about=""><dc:format>image/svg+xml</dc:format><dc:type
           rdf:resource="http://purl.org/dc/dcmitype/StillImage" /><dc:title /></cc:Work></rdf:RDF></metadata><defs
     id="defs24" /><sodipodi:namedview
     pagecolor="#ffffff"
     bordercolor="#666666"
     borderopacity="1"
     objecttolerance="10"
     gridtolerance="10"
     guidetolerance="10"
     inkscape:pageopacity="0"
     inkscape:pageshadow="2"
     inkscape:window-width="1864"
     inkscape:window-height="1016"
     id="namedview22"
     showgrid="false"
     inkscape:zoom="1.888"
     inkscape:cx="-44.544492"
     inkscape:cy="70.043818"
     inkscape:window-x="56"
     inkscape:window-y="27"
     inkscape:window-maximized="1"
     inkscape:current-layer="g14" /><g
     id="g14"
     style="display:inline;fill:#f9f9f9"><g
       id="g6"
       style="fill:#f9f9f9"><path
         d="m 32.29,50 c 0,-1.929 0.179,-3.812 0.488,-5.648 C 20.452,36.997 5.03,37.844 5.03,37.844 c 0,0 -1.184,21.482 11.335,34.003 C 26.432,81.916 42.283,83.119 48.106,83.205 43.997,79.078 32.29,65.933 32.29,50 Z"
         id="path2"
         inkscape:connector-curvature="0"
         style="fill:#f9f9f9" /><path
         d="m 94.97,37.844 c 0,0 -14.531,-0.795 -26.658,5.887 0.378,2.03 0.599,4.124 0.599,6.27 0,15.895 -11.646,29.015 -15.783,33.173 C 59.721,82.929 74.213,81.272 83.637,71.848 96.154,59.326 94.97,37.844 94.97,37.844 Z"
         id="path4"
         inkscape:connector-curvature="0"
         style="fill:#f9f9f9" /></g><path
       d="m 50.602,83.292 c 0,0 16.645,-14.904 16.645,-33.292 0,-18.387 -16.645,-33.292 -16.645,-33.292 0,0 -16.647,14.905 -16.647,33.292 0,18.388 16.647,33.292 16.647,33.292 z"
       id="path8"
       inkscape:connector-curvature="0"
       style="fill:#f9f9f9" /><path
       d="m 33.104,42.629 c 0.881,-4.041 2.397,-7.804 4.163,-11.164 -6.326,-4.371 -12.006,-6.424 -12.006,-6.424 0,0 -2.644,5.383 -4.166,12.881 3.914,0.965 8.083,2.446 12.009,4.707 z"
       id="path10"
       inkscape:connector-curvature="0"
       style="fill:#f9f9f9" /><path
       d="m 80.006,37.667 c -1.53,-7.362 -4.112,-12.626 -4.112,-12.626 0,0 -5.658,2.05 -11.971,6.403 1.685,3.202 3.139,6.771 4.037,10.597 3.985,-2.131 8.171,-3.5 12.046,-4.374 z"
       id="path12"
       inkscape:connector-curvature="0"
       style="fill:#f9f9f9" /></g><g
     inkscape:groupmode="layer"
     id="layer1"
     inkscape:label="bg"
     style="display:inline" /></svg>